<?xml version="1.0" encoding="UTF-8" standalone="no"?>
<!DOCTYPE svg PUBLIC "-//W3C//DTD SVG 1.1//EN" "http://www.w3.org/Graphics/SVG/1.1/DTD/svg11.dtd">
<svg version="1.1" xmlns="http://www.w3.org/2000/svg" xmlns:xlink="http://www.w3.org/1999/xlink" preserveAspectRatio="xMidYMid meet" viewBox="0 0 640 640" width="640" height="640"><defs><path d="M605.04 326.08C605.04 483.4 477.32 611.12 320 611.12C162.68 611.12 34.96 483.4 34.96 326.08C34.96 168.76 162.68 41.04 320 41.04C477.32 41.04 605.04 168.76 605.04 326.08Z" id="j3B1A4WsXC"></path><clipPath id="clipg37UWl45Rx"><use xlink:href="#j3B1A4WsXC" opacity="1"></use></clipPath><clipPath id="clipc2BKijOVe"><use xlink:href="#j3B1A4WsXC" opacity="1"></use></clipPath><path d="M304.29 325.47L411.71 260.61C458.71 286.03 488.08 301.92 499.82 308.27C515.26 316.62 515.44 338.7 500.15 347.31C440.41 380.94 301.58 459.1 243.14 492C224.49 502.5 201.43 489.02 201.43 467.62C201.43 402 201.43 246.92 201.43 179.78C201.43 161.89 220.81 150.72 236.29 159.68C251.85 168.68 290.73 191.17 352.94 227.17" id="ahrVs9CzA"></path></defs><g><g><g><use xlink:href="#j3B1A4WsXC" opacity="1" fill="#ee2b2f" fill-opacity="1"></use><g clip-path="url(#clipg37UWl45Rx)"><use xlink:href="#j3B1A4WsXC" opacity="1" fill-opacity="0" stroke="#ffffff" stroke-width="40" stroke-opacity="1"></use></g><g clip-path="url(#clipc2BKijOVe)"><use xlink:href="#j3B1A4WsXC" opacity="1" fill-opacity="0" stroke="#000000" stroke-width="10" stroke-opacity="1"></use></g></g><g><g><filter id="shadow8932581" x="164.43" y="119.52" width="404.08" height="433.12" filterUnits="userSpaceOnUse" primitiveUnits="userSpaceOnUse"><feFlood></feFlood><feComposite in2="SourceAlpha" operator="in"></feComposite><feGaussianBlur stdDeviation="1"></feGaussianBlur><feOffset dx="20" dy="20" result="afterOffset"></feOffset><feFlood flood-color="#000000" flood-opacity="0.99"></feFlood><feComposite in2="afterOffset" operator="in"></feComposite><feMorphology operator="dilate" radius="10"></feMorphology><feComposite in2="SourceAlpha" operator="out"></feComposite></filter><path d="M304.29 325.47L411.71 260.61C458.71 286.03 488.08 301.92 499.82 308.27C515.26 316.62 515.44 338.7 500.15 347.31C440.41 380.94 301.58 459.1 243.14 492C224.49 502.5 201.43 489.02 201.43 467.62C201.43 402 201.43 246.92 201.43 179.78C201.43 161.89 220.81 150.72 236.29 159.68C251.85 168.68 290.73 191.17 352.94 227.17" id="a3bzy06UK6" fill="none" stroke="white" filter="url(#shadow8932581)"></path></g><g><use xlink:href="#ahrVs9CzA" opacity="1" fill-opacity="0" stroke="#ffffff" stroke-width="40" stroke-opacity="1"></use></g></g></g></g></svg>